<?xml version="1.0" encoding="UTF-8"?>
<svg version="1.1" xmlns="http://www.w3.org/2000/svg" width="64" height="64">
<path d="M0 0 C8.04071716 5.46768767 14.35713546 11.78672485 16.953125 21.328125 C17.97008074 32.73931439 17.08780568 41.52074309 9.640625 50.578125 C3.75028057 56.89640044 -1.9995096 60.87830798 -10.81640625 61.6640625 C-22.23808647 61.92046185 -29.76998744 60.10045244 -38.2578125 52.1875 C-45.41707366 44.7468705 -47.46537447 37.63799487 -47.41040039 27.37304688 C-47.154444 17.46241552 -43.06295379 11.07888989 -36.046875 4.328125 C-26.55128048 -3.80505814 -11.27874483 -6.1129075 0 0 Z M-17.046875 14.328125 C-17.046875 24.228125 -17.046875 34.128125 -17.046875 44.328125 C-6.60856952 43.72400564 -6.60856952 43.72400564 0.953125 41.328125 C0.953125 33.408125 0.953125 25.488125 0.953125 17.328125 C-6.60856952 14.93224436 -6.60856952 14.93224436 -17.046875 14.328125 Z M-25.046875 14.328125 C-27.026875 15.318125 -29.006875 16.308125 -31.046875 17.328125 C-31.046875 25.248125 -31.046875 33.168125 -31.046875 41.328125 C-28.736875 42.318125 -26.426875 43.308125 -24.046875 44.328125 C-22.74026005 43.24704051 -22.74026005 43.24704051 -22.93334961 40.64428711 C-22.94120483 38.89257202 -22.94120483 38.89257202 -22.94921875 37.10546875 C-22.95244141 35.84541016 -22.95566406 34.58535156 -22.95898438 33.28710938 C-22.96734097 31.94661391 -22.97580593 30.60611912 -22.984375 29.265625 C-22.9893884 27.92122558 -22.99395158 26.5768244 -22.99804688 25.23242188 C-23.00988012 21.93094559 -23.02636529 18.62955697 -23.046875 15.328125 C-23.706875 14.998125 -24.366875 14.668125 -25.046875 14.328125 Z " fill="#0097E5" transform="translate(47.046875,2.671875)"/>
</svg>
